<svg xmlns="http://www.w3.org/2000/svg" version="1.1" xmlns:xlink="http://www.w3.org/1999/xlink" xmlns:svgjs="http://svgjs.com/svgjs" width="500" height="500"><svg xmlns="http://www.w3.org/2000/svg" xmlns:xlink="http://www.w3.org/1999/xlink" width="500" zoomAndPan="magnify" viewBox="0 0 375 374.999991" height="500" preserveAspectRatio="xMidYMid meet" version="1.0"><defs><clipPath id="SvgjsClipPath1000"><path d="M 6.148438 6.148438 L 369 6.148438 L 369 369 L 6.148438 369 Z M 6.148438 6.148438 " clip-rule="nonzero"></path></clipPath></defs><g clip-path="url(#5ba1317fe6)"><path fill="#14213d" d="M 368.84375 187.496094 C 368.84375 190.464844 368.773438 193.433594 368.628906 196.394531 C 368.480469 199.359375 368.261719 202.320312 367.972656 205.273438 C 367.679688 208.226562 367.316406 211.171875 366.882812 214.105469 C 366.445312 217.042969 365.941406 219.964844 365.359375 222.878906 C 364.78125 225.789062 364.132812 228.683594 363.410156 231.5625 C 362.691406 234.441406 361.898438 237.300781 361.035156 240.140625 C 360.175781 242.980469 359.246094 245.796875 358.246094 248.59375 C 357.246094 251.386719 356.175781 254.15625 355.042969 256.898438 C 353.90625 259.636719 352.703125 262.351562 351.433594 265.035156 C 350.164062 267.71875 348.832031 270.367188 347.433594 272.984375 C 346.035156 275.601562 344.570312 278.183594 343.046875 280.730469 C 341.519531 283.273438 339.933594 285.78125 338.28125 288.25 C 336.632812 290.71875 334.925781 293.144531 333.15625 295.527344 C 331.390625 297.910156 329.5625 300.25 327.679688 302.542969 C 325.796875 304.835938 323.859375 307.085938 321.867188 309.285156 C 319.875 311.484375 317.828125 313.632812 315.730469 315.730469 C 313.632812 317.828125 311.484375 319.875 309.285156 321.867188 C 307.085938 323.859375 304.835938 325.796875 302.542969 327.679688 C 300.25 329.5625 297.910156 331.390625 295.527344 333.15625 C 293.144531 334.925781 290.71875 336.632812 288.25 338.28125 C 285.78125 339.933594 283.273438 341.519531 280.730469 343.046875 C 278.183594 344.570312 275.601562 346.035156 272.984375 347.433594 C 270.367188 348.832031 267.71875 350.164062 265.035156 351.433594 C 262.351562 352.703125 259.636719 353.90625 256.898438 355.042969 C 254.15625 356.175781 251.386719 357.246094 248.59375 358.246094 C 245.796875 359.246094 242.980469 360.175781 240.140625 361.035156 C 237.300781 361.898438 234.441406 362.691406 231.5625 363.410156 C 228.683594 364.132812 225.789062 364.78125 222.878906 365.359375 C 219.964844 365.941406 217.042969 366.449219 214.105469 366.882812 C 211.171875 367.316406 208.226562 367.679688 205.273438 367.972656 C 202.320312 368.261719 199.359375 368.480469 196.394531 368.628906 C 193.433594 368.773438 190.464844 368.84375 187.496094 368.84375 C 184.53125 368.84375 181.5625 368.773438 178.601562 368.628906 C 175.636719 368.480469 172.675781 368.261719 169.722656 367.972656 C 166.769531 367.679688 163.824219 367.316406 160.890625 366.882812 C 157.953125 366.445312 155.03125 365.941406 152.117188 365.359375 C 149.207031 364.78125 146.3125 364.132812 143.433594 363.410156 C 140.554688 362.691406 137.695312 361.898438 134.855469 361.035156 C 132.015625 360.175781 129.199219 359.246094 126.402344 358.246094 C 123.609375 357.246094 120.839844 356.175781 118.097656 355.042969 C 115.355469 353.90625 112.644531 352.703125 109.960938 351.433594 C 107.277344 350.164062 104.628906 348.832031 102.011719 347.433594 C 99.394531 346.035156 96.8125 344.570312 94.265625 343.046875 C 91.722656 341.519531 89.214844 339.933594 86.746094 338.28125 C 84.277344 336.632812 81.851562 334.925781 79.46875 333.15625 C 77.085938 331.390625 74.746094 329.5625 72.453125 327.679688 C 70.15625 325.796875 67.910156 323.859375 65.710938 321.867188 C 63.511719 319.875 61.363281 317.828125 59.265625 315.730469 C 57.167969 313.632812 55.121094 311.484375 53.128906 309.285156 C 51.136719 307.085938 49.195312 304.835938 47.3125 302.542969 C 45.429688 300.25 43.605469 297.910156 41.839844 295.527344 C 40.070312 293.144531 38.363281 290.71875 36.714844 288.25 C 35.0625 285.78125 33.476562 283.273438 31.949219 280.730469 C 30.425781 278.183594 28.960938 275.601562 27.5625 272.984375 C 26.164062 270.367188 24.832031 267.71875 23.5625 265.035156 C 22.292969 262.351562 21.089844 259.636719 19.953125 256.898438 C 18.820312 254.15625 17.75 251.386719 16.75 248.59375 C 15.75 245.796875 14.820312 242.980469 13.960938 240.140625 C 13.097656 237.300781 12.304688 234.441406 11.585938 231.5625 C 10.863281 228.683594 10.214844 225.789062 9.636719 222.878906 C 9.054688 219.964844 8.546875 217.042969 8.113281 214.105469 C 7.675781 211.171875 7.316406 208.226562 7.023438 205.273438 C 6.734375 202.320312 6.515625 199.359375 6.367188 196.394531 C 6.222656 193.433594 6.148438 190.464844 6.148438 187.496094 C 6.148438 184.53125 6.222656 181.5625 6.367188 178.601562 C 6.515625 175.636719 6.734375 172.675781 7.023438 169.722656 C 7.316406 166.769531 7.675781 163.824219 8.113281 160.890625 C 8.546875 157.953125 9.054688 155.03125 9.636719 152.117188 C 10.214844 149.207031 10.863281 146.3125 11.585938 143.433594 C 12.304688 140.554688 13.097656 137.695312 13.960938 134.855469 C 14.820312 132.015625 15.75 129.199219 16.75 126.402344 C 17.75 123.609375 18.820312 120.839844 19.953125 118.097656 C 21.089844 115.355469 22.292969 112.644531 23.5625 109.960938 C 24.832031 107.277344 26.164062 104.628906 27.5625 102.011719 C 28.960938 99.394531 30.425781 96.8125 31.949219 94.265625 C 33.476562 91.722656 35.0625 89.214844 36.714844 86.746094 C 38.363281 84.277344 40.070312 81.851562 41.839844 79.46875 C 43.605469 77.085938 45.429688 74.746094 47.3125 72.453125 C 49.195312 70.15625 51.136719 67.910156 53.128906 65.710938 C 55.121094 63.511719 57.167969 61.363281 59.265625 59.265625 C 61.363281 57.167969 63.511719 55.121094 65.710938 53.128906 C 67.910156 51.136719 70.15625 49.195312 72.453125 47.3125 C 74.746094 45.429688 77.085938 43.605469 79.46875 41.839844 C 81.851562 40.070312 84.277344 38.363281 86.746094 36.714844 C 89.214844 35.0625 91.722656 33.476562 94.265625 31.949219 C 96.8125 30.425781 99.394531 28.960938 102.011719 27.5625 C 104.628906 26.164062 107.277344 24.832031 109.960938 23.5625 C 112.644531 22.292969 115.355469 21.089844 118.097656 19.953125 C 120.839844 18.820312 123.609375 17.75 126.402344 16.75 C 129.199219 15.75 132.015625 14.820312 134.855469 13.960938 C 137.695312 13.097656 140.554688 12.304688 143.433594 11.585938 C 146.3125 10.863281 149.207031 10.214844 152.117188 9.636719 C 155.03125 9.054688 157.953125 8.546875 160.890625 8.113281 C 163.824219 7.675781 166.769531 7.316406 169.722656 7.023438 C 172.675781 6.734375 175.636719 6.515625 178.601562 6.367188 C 181.5625 6.222656 184.53125 6.148438 187.496094 6.148438 C 190.464844 6.148438 193.433594 6.222656 196.394531 6.367188 C 199.359375 6.515625 202.320312 6.734375 205.273438 7.023438 C 208.226562 7.316406 211.171875 7.675781 214.105469 8.113281 C 217.042969 8.546875 219.964844 9.054688 222.878906 9.636719 C 225.789062 10.214844 228.683594 10.863281 231.5625 11.585938 C 234.441406 12.304688 237.300781 13.097656 240.140625 13.960938 C 242.980469 14.820312 245.796875 15.75 248.59375 16.75 C 251.386719 17.75 254.15625 18.820312 256.898438 19.953125 C 259.636719 21.089844 262.351562 22.292969 265.035156 23.5625 C 267.71875 24.832031 270.367188 26.164062 272.984375 27.5625 C 275.601562 28.960938 278.183594 30.425781 280.730469 31.949219 C 283.273438 33.476562 285.78125 35.0625 288.25 36.714844 C 290.71875 38.363281 293.144531 40.070312 295.527344 41.839844 C 297.910156 43.605469 300.25 45.429688 302.542969 47.3125 C 304.835938 49.195312 307.085938 51.136719 309.285156 53.128906 C 311.484375 55.121094 313.632812 57.167969 315.730469 59.265625 C 317.828125 61.363281 319.875 63.511719 321.867188 65.710938 C 323.859375 67.910156 325.796875 70.15625 327.679688 72.453125 C 329.5625 74.746094 331.390625 77.085938 333.15625 79.46875 C 334.925781 81.851562 336.632812 84.277344 338.28125 86.746094 C 339.933594 89.214844 341.519531 91.722656 343.046875 94.265625 C 344.570312 96.8125 346.035156 99.394531 347.433594 102.011719 C 348.832031 104.628906 350.164062 107.277344 351.433594 109.960938 C 352.703125 112.644531 353.90625 115.355469 355.042969 118.097656 C 356.175781 120.839844 357.246094 123.609375 358.246094 126.402344 C 359.246094 129.199219 360.175781 132.015625 361.035156 134.855469 C 361.898438 137.695312 362.691406 140.554688 363.410156 143.433594 C 364.132812 146.3125 364.78125 149.207031 365.359375 152.117188 C 365.941406 155.03125 366.449219 157.953125 366.882812 160.890625 C 367.316406 163.824219 367.679688 166.769531 367.972656 169.722656 C 368.261719 172.675781 368.480469 175.636719 368.628906 178.601562 C 368.773438 181.5625 368.84375 184.53125 368.84375 187.496094 Z M 368.84375 187.496094 " fill-opacity="1" fill-rule="nonzero"></path></g><path fill="#3b5060" d="M 115.929688 264.691406 L 133.300781 264.691406 L 133.300781 276.742188 L 115.929688 276.742188 Z M 115.929688 264.691406 " fill-opacity="1" fill-rule="evenodd"></path><path fill="#3b5060" d="M 241.953125 264.691406 L 259.320312 264.691406 L 259.320312 276.742188 L 241.953125 276.742188 Z M 241.953125 264.691406 " fill-opacity="1" fill-rule="evenodd"></path><path fill="#00e4e3" d="M 234.761719 252.640625 L 228.925781 252.640625 L 228.925781 264.691406 L 272.335938 264.691406 L 272.335938 252.640625 Z M 234.761719 252.640625 " fill-opacity="1" fill-rule="evenodd"></path><path fill="#00e4e3" d="M 102.902344 252.640625 L 146.3125 252.640625 L 146.3125 264.691406 L 102.902344 264.691406 Z M 102.902344 252.640625 " fill-opacity="1" fill-rule="evenodd"></path><path fill="#fca311" d="M 140.476562 252.640625 C 140.476562 218.695312 162.03125 233.082031 162.03125 201.054688 C 162.03125 180.386719 145.269531 163.632812 124.605469 163.632812 C 103.945312 163.632812 87.183594 180.394531 87.183594 201.054688 C 87.183594 233.082031 108.738281 218.679688 108.738281 252.640625 Z M 140.476562 252.640625 " fill-opacity="1" fill-rule="evenodd"></path><path fill="#fca311" d="M 213.207031 201.0625 C 213.207031 233.089844 234.761719 218.6875 234.761719 252.648438 L 266.496094 252.648438 C 266.496094 218.703125 288.054688 233.089844 288.054688 201.0625 C 288.054688 180.394531 271.292969 163.640625 250.628906 163.640625 C 229.957031 163.632812 213.207031 180.394531 213.207031 201.0625 Z M 213.207031 201.0625 " fill-opacity="1" fill-rule="evenodd"></path><path fill="#000000" d="M 140.476562 254.871094 C 139.242188 254.871094 138.242188 253.875 138.242188 252.640625 C 138.242188 234.394531 144.503906 228.996094 150.039062 224.234375 C 155.28125 219.722656 159.808594 215.820312 159.808594 201.054688 C 159.808594 181.648438 144.015625 165.863281 124.613281 165.863281 C 105.203125 165.863281 89.421875 181.652344 89.421875 201.054688 C 89.421875 215.8125 93.949219 219.714844 99.191406 224.234375 C 104.714844 228.996094 110.984375 234.394531 110.984375 252.640625 C 110.984375 253.875 109.984375 254.871094 108.753906 254.871094 C 107.519531 254.871094 106.523438 253.875 106.523438 252.640625 C 106.523438 236.441406 101.550781 232.15625 96.285156 227.613281 C 90.71875 222.816406 84.964844 217.859375 84.964844 201.054688 C 84.964844 179.1875 102.753906 161.394531 124.628906 161.394531 C 146.503906 161.394531 164.292969 179.179688 164.292969 201.054688 C 164.292969 217.859375 158.539062 222.816406 152.972656 227.613281 C 147.699219 232.15625 142.734375 236.441406 142.734375 252.640625 C 142.707031 253.875 141.707031 254.871094 140.476562 254.871094 Z M 140.476562 254.871094 " fill-opacity="1" fill-rule="nonzero"></path><path fill="#000000" d="M 146.3125 266.921875 L 102.902344 266.921875 C 101.667969 266.921875 100.671875 265.921875 100.671875 264.691406 L 100.671875 252.640625 C 100.671875 251.410156 101.667969 250.410156 102.902344 250.410156 L 146.320312 250.410156 C 147.550781 250.410156 148.550781 251.410156 148.550781 252.640625 L 148.550781 264.691406 C 148.542969 265.921875 147.550781 266.921875 146.3125 266.921875 Z M 105.132812 262.460938 L 144.085938 262.460938 L 144.085938 254.871094 L 105.132812 254.871094 Z M 105.132812 262.460938 " fill-opacity="1" fill-rule="nonzero"></path><path fill="#000000" d="M 133.292969 278.972656 L 115.929688 278.972656 C 114.695312 278.972656 113.699219 277.972656 113.699219 276.742188 L 113.699219 264.691406 C 113.699219 263.457031 114.695312 262.460938 115.929688 262.460938 C 117.160156 262.460938 118.160156 263.457031 118.160156 264.691406 L 118.160156 274.507812 L 131.066406 274.507812 L 131.066406 264.691406 C 131.066406 263.457031 132.066406 262.460938 133.300781 262.460938 C 134.53125 262.460938 135.53125 263.457031 135.53125 264.691406 L 135.53125 276.742188 C 135.523438 277.972656 134.523438 278.972656 133.292969 278.972656 Z M 133.292969 278.972656 " fill-opacity="1" fill-rule="nonzero"></path><path fill="#000000" d="M 124.605469 157.527344 C 123.375 157.527344 122.375 156.527344 122.375 155.292969 L 122.375 148.003906 C 122.375 146.773438 123.375 145.773438 124.605469 145.773438 C 125.839844 145.773438 126.839844 146.773438 126.839844 148.003906 L 126.839844 155.292969 C 126.839844 156.527344 125.839844 157.527344 124.605469 157.527344 Z M 124.605469 157.527344 " fill-opacity="1" fill-rule="nonzero"></path><path fill="#000000" d="M 149.683594 164.25 C 149.308594 164.25 148.917969 164.148438 148.566406 163.949219 C 147.496094 163.335938 147.132812 161.96875 147.742188 160.898438 L 151.382812 154.585938 C 152 153.515625 153.367188 153.15625 154.4375 153.765625 C 155.507812 154.378906 155.867188 155.746094 155.257812 156.816406 L 151.617188 163.128906 C 151.207031 163.84375 150.457031 164.25 149.683594 164.25 Z M 149.683594 164.25 " fill-opacity="1" fill-rule="nonzero"></path><path fill="#000000" d="M 99.53125 164.25 C 98.757812 164.25 98.007812 163.851562 97.597656 163.128906 L 93.957031 156.816406 C 93.339844 155.746094 93.707031 154.386719 94.777344 153.765625 C 95.847656 153.148438 97.207031 153.515625 97.828125 154.585938 L 101.472656 160.898438 C 102.085938 161.96875 101.71875 163.328125 100.648438 163.949219 C 100.296875 164.148438 99.90625 164.25 99.53125 164.25 Z M 99.53125 164.25 " fill-opacity="1" fill-rule="nonzero"></path><path fill="#000000" d="M 124.605469 254.871094 C 123.375 254.871094 122.375 253.875 122.375 252.640625 L 122.375 208.132812 C 122.375 206.902344 123.375 205.902344 124.605469 205.902344 C 125.839844 205.902344 126.839844 206.902344 126.839844 208.132812 L 126.839844 252.640625 C 126.839844 253.875 125.839844 254.871094 124.605469 254.871094 Z M 124.605469 254.871094 " fill-opacity="1" fill-rule="nonzero"></path><path fill="#000000" d="M 124.605469 210.371094 C 124.011719 210.371094 123.417969 210.136719 122.976562 209.664062 C 122.136719 208.765625 122.183594 207.355469 123.078125 206.503906 L 134.828125 195.496094 C 135.730469 194.652344 137.136719 194.703125 137.980469 195.59375 C 138.824219 196.496094 138.773438 197.902344 137.882812 198.753906 L 126.128906 209.761719 C 125.707031 210.171875 125.160156 210.371094 124.605469 210.371094 Z M 124.605469 210.371094 " fill-opacity="1" fill-rule="nonzero"></path><path fill="#000000" d="M 124.605469 210.371094 C 124.0625 210.371094 123.515625 210.171875 123.085938 209.769531 L 111.332031 198.761719 C 110.433594 197.917969 110.390625 196.507812 111.234375 195.601562 C 112.074219 194.695312 113.484375 194.660156 114.386719 195.503906 L 126.128906 206.511719 C 127.03125 207.355469 127.074219 208.765625 126.230469 209.671875 C 125.796875 210.132812 125.203125 210.371094 124.605469 210.371094 Z M 124.605469 210.371094 " fill-opacity="1" fill-rule="nonzero"></path><path fill="#000000" d="M 266.496094 254.871094 C 265.265625 254.871094 264.265625 253.875 264.265625 252.640625 C 264.265625 234.394531 270.527344 228.996094 276.054688 224.234375 C 281.296875 219.722656 285.824219 215.820312 285.824219 201.054688 C 285.824219 181.648438 270.03125 165.863281 250.628906 165.863281 C 231.21875 165.863281 215.4375 181.652344 215.4375 201.054688 C 215.4375 215.8125 219.964844 219.714844 225.207031 224.234375 C 230.730469 228.996094 236.992188 234.394531 236.992188 252.640625 C 236.992188 253.875 235.996094 254.871094 234.761719 254.871094 C 233.527344 254.871094 232.53125 253.875 232.53125 252.640625 C 232.53125 236.441406 227.558594 232.15625 222.292969 227.613281 C 216.726562 222.816406 210.972656 217.859375 210.972656 201.054688 C 210.972656 179.1875 228.761719 161.394531 250.636719 161.394531 C 272.511719 161.394531 290.300781 179.179688 290.300781 201.054688 C 290.300781 217.859375 284.546875 222.816406 278.980469 227.613281 C 273.707031 232.15625 268.742188 236.441406 268.742188 252.640625 C 268.730469 253.875 267.730469 254.871094 266.496094 254.871094 Z M 266.496094 254.871094 " fill-opacity="1" fill-rule="nonzero"></path><path fill="#000000" d="M 272.335938 266.921875 L 228.917969 266.921875 C 227.683594 266.921875 226.6875 265.921875 226.6875 264.691406 L 226.6875 252.640625 C 226.6875 251.410156 227.683594 250.410156 228.917969 250.410156 L 272.335938 250.410156 C 273.566406 250.410156 274.566406 251.410156 274.566406 252.640625 L 274.566406 264.691406 C 274.566406 265.921875 273.566406 266.921875 272.335938 266.921875 Z M 231.148438 262.460938 L 270.101562 262.460938 L 270.101562 254.871094 L 231.148438 254.871094 Z M 231.148438 262.460938 " fill-opacity="1" fill-rule="nonzero"></path><path fill="#000000" d="M 259.316406 278.972656 L 241.953125 278.972656 C 240.71875 278.972656 239.71875 277.972656 239.71875 276.742188 L 239.71875 264.691406 C 239.71875 263.457031 240.71875 262.460938 241.953125 262.460938 C 243.183594 262.460938 244.183594 263.457031 244.183594 264.691406 L 244.183594 274.507812 L 257.089844 274.507812 L 257.089844 264.691406 C 257.089844 263.457031 258.089844 262.460938 259.320312 262.460938 C 260.554688 262.460938 261.554688 263.457031 261.554688 264.691406 L 261.554688 276.742188 C 261.546875 277.972656 260.546875 278.972656 259.316406 278.972656 Z M 259.316406 278.972656 " fill-opacity="1" fill-rule="nonzero"></path><path fill="#000000" d="M 250.628906 157.527344 C 249.398438 157.527344 248.398438 156.527344 248.398438 155.292969 L 248.398438 148.003906 C 248.398438 146.773438 249.398438 145.773438 250.628906 145.773438 C 251.863281 145.773438 252.859375 146.773438 252.859375 148.003906 L 252.859375 155.292969 C 252.859375 156.527344 251.863281 157.527344 250.628906 157.527344 Z M 250.628906 157.527344 " fill-opacity="1" fill-rule="nonzero"></path><path fill="#000000" d="M 275.707031 164.25 C 275.332031 164.25 274.941406 164.148438 274.585938 163.949219 C 273.519531 163.335938 273.15625 161.96875 273.765625 160.898438 L 277.40625 154.585938 C 278.023438 153.515625 279.390625 153.15625 280.460938 153.765625 C 281.53125 154.378906 281.890625 155.746094 281.28125 156.816406 L 277.640625 163.128906 C 277.230469 163.84375 276.480469 164.25 275.707031 164.25 Z M 275.707031 164.25 " fill-opacity="1" fill-rule="nonzero"></path><path fill="#000000" d="M 225.550781 164.25 C 224.78125 164.25 224.03125 163.851562 223.617188 163.128906 L 219.976562 156.816406 C 219.359375 155.746094 219.730469 154.386719 220.800781 153.765625 C 221.867188 153.148438 223.230469 153.515625 223.851562 154.585938 L 227.492188 160.898438 C 228.109375 161.96875 227.742188 163.328125 226.671875 163.949219 C 226.316406 164.148438 225.929688 164.25 225.550781 164.25 Z M 225.550781 164.25 " fill-opacity="1" fill-rule="nonzero"></path><path fill="#000000" d="M 250.628906 254.871094 C 249.398438 254.871094 248.398438 253.875 248.398438 252.640625 L 248.398438 208.132812 C 248.398438 206.902344 249.398438 205.902344 250.628906 205.902344 C 251.863281 205.902344 252.859375 206.902344 252.859375 208.132812 L 252.859375 252.640625 C 252.859375 253.875 251.863281 254.871094 250.628906 254.871094 Z M 250.628906 254.871094 " fill-opacity="1" fill-rule="nonzero"></path><path fill="#000000" d="M 250.628906 210.371094 C 250.035156 210.371094 249.441406 210.136719 249 209.664062 C 248.15625 208.765625 248.207031 207.355469 249.097656 206.503906 L 260.84375 195.496094 C 261.746094 194.652344 263.152344 194.703125 264.003906 195.59375 C 264.847656 196.496094 264.796875 197.902344 263.90625 198.753906 L 252.160156 209.761719 C 251.726562 210.171875 251.183594 210.371094 250.628906 210.371094 Z M 250.628906 210.371094 " fill-opacity="1" fill-rule="nonzero"></path><path fill="#000000" d="M 250.628906 210.371094 C 250.085938 210.371094 249.53125 210.171875 249.105469 209.769531 L 237.355469 198.761719 C 236.453125 197.917969 236.414062 196.507812 237.253906 195.601562 C 238.097656 194.703125 239.507812 194.660156 240.414062 195.503906 L 252.167969 206.511719 C 253.066406 207.355469 253.109375 208.765625 252.265625 209.671875 C 251.820312 210.132812 251.226562 210.371094 250.628906 210.371094 Z M 250.628906 210.371094 " fill-opacity="1" fill-rule="nonzero"></path><path fill="#000000" d="M 125.125 142.378906 C 124.550781 142.378906 123.984375 142.160156 123.542969 141.722656 L 102.804688 120.980469 C 101.929688 120.109375 101.929688 118.699219 102.804688 117.820312 C 103.675781 116.949219 105.082031 116.949219 105.960938 117.820312 L 125.125 136.984375 L 144.285156 117.820312 C 145.15625 116.949219 146.566406 116.949219 147.445312 117.820312 C 148.316406 118.691406 148.316406 120.101562 147.445312 120.980469 L 126.703125 141.722656 C 126.265625 142.160156 125.699219 142.378906 125.125 142.378906 Z M 125.125 142.378906 " fill-opacity="1" fill-rule="nonzero"></path><path fill="#000000" d="M 250.113281 142.378906 C 248.878906 142.378906 247.882812 141.382812 247.882812 140.148438 L 247.882812 120.582031 C 247.882812 109.878906 239.175781 101.171875 228.472656 101.171875 L 146.765625 101.171875 C 136.0625 101.171875 127.355469 109.878906 127.355469 120.582031 L 127.355469 140.148438 C 127.355469 141.382812 126.355469 142.378906 125.125 142.378906 C 123.890625 142.378906 122.894531 141.382812 122.894531 140.148438 L 122.894531 120.582031 C 122.894531 107.421875 133.605469 96.710938 146.765625 96.710938 L 228.472656 96.710938 C 241.632812 96.710938 252.34375 107.421875 252.34375 120.582031 L 252.34375 140.148438 C 252.34375 141.382812 251.34375 142.378906 250.113281 142.378906 Z M 250.113281 142.378906 " fill-opacity="1" fill-rule="nonzero"></path><path fill="#000000" d="M 250.113281 142.378906 C 249.539062 142.378906 248.972656 142.160156 248.53125 141.722656 L 227.792969 120.980469 C 226.917969 120.109375 226.917969 118.699219 227.792969 117.820312 C 228.664062 116.949219 230.070312 116.949219 230.949219 117.820312 L 250.113281 136.984375 L 269.273438 117.820312 C 270.144531 116.949219 271.554688 116.949219 272.433594 117.820312 C 273.304688 118.691406 273.304688 120.101562 272.433594 120.980469 L 251.691406 141.722656 C 251.261719 142.160156 250.6875 142.378906 250.113281 142.378906 Z M 250.113281 142.378906 " fill-opacity="1" fill-rule="nonzero"></path></svg><style>@media (prefers-color-scheme: light) { :root { filter: contrast(1) brightness(1); } }
</style></svg>