<?xml version="1.0" standalone="no"?>
<!DOCTYPE svg PUBLIC "-//W3C//DTD SVG 20010904//EN"
 "http://www.w3.org/TR/2001/REC-SVG-20010904/DTD/svg10.dtd">
<svg version="1.0" xmlns="http://www.w3.org/2000/svg"
 width="700.000000pt" height="700.000000pt" viewBox="0 0 700.000000 700.000000"
 preserveAspectRatio="xMidYMid meet">
<metadata>
Created by potrace 1.14, written by Peter Selinger 2001-2017
</metadata>
<g transform="translate(0.000000,700.000000) scale(0.100000,-0.100000)"
fill="#000000" stroke="none">
<path d="M3397 6884 c-1 -1 -56 -4 -121 -8 -65 -3 -128 -8 -140 -11 -12 -2
-46 -7 -76 -10 -438 -50 -936 -227 -1345 -478 -105 -65 -334 -233 -425 -312
-66 -57 -307 -300 -367 -370 -209 -244 -385 -528 -536 -866 -75 -167 -184
-522 -212 -689 -3 -19 -8 -48 -11 -65 -35 -209 -46 -342 -46 -562 0 -185 5
-293 23 -428 6 -44 13 -93 15 -109 2 -15 5 -35 8 -45 3 -9 8 -34 11 -56 20
-142 93 -399 172 -605 75 -194 267 -565 320 -618 7 -7 13 -17 13 -21 0 -9 163
-231 225 -307 72 -87 378 -387 463 -454 253 -197 505 -351 752 -460 41 -18 94
-41 117 -51 98 -43 425 -144 536 -165 12 -2 33 -6 47 -9 14 -3 50 -9 80 -15
30 -6 66 -12 80 -15 14 -3 48 -8 75 -11 28 -3 64 -7 80 -9 237 -30 614 -22
870 19 17 2 50 7 75 11 199 31 543 132 740 217 185 80 427 212 577 314 703
481 1184 1175 1392 2009 34 137 35 140 56 289 9 61 18 121 20 134 8 49 18 252
18 367 1 197 -19 434 -49 590 -35 185 -69 318 -120 475 -44 132 -166 430 -189
460 -6 8 -28 49 -49 90 -70 137 -256 418 -338 512 -13 14 -43 51 -68 81 -65
80 -310 321 -410 403 -402 332 -883 571 -1384 689 -108 25 -128 29 -200 40
-21 4 -48 8 -60 11 -11 2 -43 7 -71 10 -27 3 -61 7 -75 9 -59 9 -466 25 -473
19z"/>
</g>
</svg>
